<?xml version="1.0" encoding="UTF-8"?>
<!DOCTYPE svg PUBLIC "-//W3C//DTD SVG 1.1//EN" "http://www.w3.org/Graphics/SVG/1.1/DTD/svg11.dtd">
<!-- Creator: CorelDRAW X8 -->
<svg xmlns="http://www.w3.org/2000/svg" xml:space="preserve" width="1000px" height="1000px" version="1.1" style="shape-rendering:geometricPrecision; text-rendering:geometricPrecision; image-rendering:optimizeQuality; fill-rule:evenodd; clip-rule:evenodd"
viewBox="0 0 10000 10000"
 xmlns:xlink="http://www.w3.org/1999/xlink">
 <defs>
  <style type="text/css">
   <![CDATA[
    .fil6 {fill:#453A34}
    .fil0 {fill:#FFD06B}
    .fil3 {fill:white}
    .fil2 {fill:black;fill-rule:nonzero}
    .fil1 {fill:#2E2723;fill-rule:nonzero}
    .fil5 {fill:#453A34;fill-rule:nonzero}
    .fil4 {fill:black;fill-opacity:0.400000}
   ]]>
  </style>
 </defs>
 <g id="Слой_x0020_1">
  <metadata id="CorelCorpID_0Corel-Layer"/>
  <path class="fil0" d="M105 188l92 0c2,0 4,2 4,4l0 11c0,2 -1,3 -2,4l-15 10c-2,1 -4,3 -4,6l0 0 0 303 77 0 0 -303c0,-3 -1,-5 -3,-6l-15 -10c-2,-1 -2,-2 -2,-4l0 -11c0,-2 2,-4 4,-4l92 0c3,0 5,2 5,4l0 11c0,2 -1,3 -2,4l-16 10c-2,1 -3,3 -3,6l0 303 8 0 13 0 8 0 5 85 -30 0 -15 -49 -109 0 -27 0 -65 0c-3,0 -5,-2 -5,-5l0 -11c0,-1 1,-3 2,-4l15 -9c2,-2 4,-4 4,-6l0 0 0 -304 0 0c0,-3 -2,-5 -4,-6l-15 -10c-1,-1 -2,-2 -2,-4l0 -11c0,-2 2,-4 5,-4l0 0z"/>
  <path class="fil0" d="M743 188l0 0 92 0 0 0 0 0 0 0 0 0 0 0 0 0 0 0 0 0 0 0 0 0 0 0 0 0 0 0 0 0 0 0 1 0 0 0 0 0 0 0 0 0 0 0 0 0 0 0 0 0 0 0 0 0 0 0 0 0 0 0 0 0 0 0 0 0 0 0 0 0 0 0 1 0 0 0 0 0 0 0 0 0 0 0 0 0 0 0 0 0 0 0 0 0 0 0 0 0 0 0 0 0 0 0 0 0 0 0 0 0 0 0 1 1 0 0 0 0 0 0 0 0 0 0 0 0 0 0 0 0 0 0 0 0 0 0 0 0 0 0 0 0 0 0 0 0 0 0 0 0 0 0 0 0 0 0 0 0 0 0 0 1 0 0 0 0 0 0 1 0 0 0 0 0 0 0 0 0 0 0 0 0 0 0 0 0 0 0 0 0 0 0 0 0 0 0 0 0 0 0 0 1 0 0 0 0 0 0 0 0 0 0 0 0 0 0 0 0 0 0 0 0 0 0 0 0 0 0 0 0 0 0 0 0 0 0 0 1 0 0 0 0 0 0 0 0 0 0 0 0 0 0 0 0 0 0 0 0 0 0 0 11 0 0 0 0 0 0 0 0 0 0 0 1 0 0 0 0 0 0 0 0 0 0 0 0 0 0 0 0 0 0 0 0 0 0 0 0 0 0 0 0 0 0 0 0 0 0 0 0 0 0 0 0 0 0 0 0 0 0 0 0 0 0 0 0 0 0 0 1 0 0 0 0 0 0 0 0 0 0 0 0 0 0 0 0 0 0 0 0 0 0 0 0 0 0 0 0 0 0 0 0 0 0 0 0 0 0 0 0 0 0 0 0 0 0 0 0 0 0 0 0 0 0 0 0 0 0 0 1 0 0 0 0 0 0 0 0 0 0 0 0 -1 0 0 0 0 0 0 0 0 0 0 0 0 0 0 0 0 0 0 0 0 0 0 0 0 0 0 0 0 0 0 0 0 0 0 0 0 0 0 0 0 0 0 0 0 0 0 0 0 0 0 0 0 0 0 1 0 0 0 0 0 0 0 0 0 0 0 0 0 0 0 0 0 0 0 0 0 0 0 0 0 0 -1 0 0 0 0 0 0 0 0 0 0 0 0 0 0 0 0 0 0 0 0 0 0 0 0 0 0 0 0 0 0 0 -15 10 0 0 0 0 0 0 0 0 0 0 -1 0 0 0 0 0 0 0 0 0 0 0 0 0 0 0 0 0 0 0 0 0 0 0 0 1 0 0 0 0 0 0 0 0 0 0 0 0 0 0 0 0 0 0 0 0 0 0 -1 0 0 0 0 0 0 0 0 0 0 0 0 0 0 0 0 0 0 0 0 0 0 0 0 0 0 0 0 1 0 0 0 0 0 0 0 0 0 0 0 0 0 0 0 0 0 0 0 0 0 0 0 0 0 0 0 0 0 0 -1 0 0 0 0 0 0 0 0 0 0 0 0 0 0 0 0 1 0 0 0 0 0 0 0 0 0 0 0 0 0 0 0 0 0 0 0 0 0 0 0 0 0 0 0 0 0 0 0 0 0 0 0 0 0 0 0 1 0 0 0 0 0 0 0 0 0 0 0 0 0 0 0 0 0 0 0 0 0 0 0 0 0 0 0 0 0 0 0 0 0 0 0 0 0 0 0 1 0 0 0 0 0 0 0 0 0 0 0 0 0 0 0 0 0 0 0 0 0 0 0 0 0 0 0 0 0 0 0 0 0 0 0 1 0 0 0 0 0 0 0 0 0 215 80 -218 0 0 0 0 0 0 0 0 0 0 0 0 0 0 0 0 0 0 0 0 0 0 0 0 0 -1 0 0 0 0 0 0 0 0 0 0 -1 0 0 0 0 0 0 0 0 0 0 0 0 0 0 0 0 0 0 0 0 0 0 0 0 0 0 0 0 0 0 0 0 0 0 0 0 -1 0 0 0 0 0 0 0 0 0 0 0 0 0 0 0 0 0 0 0 0 0 0 -1 0 0 0 0 0 0 0 0 0 0 0 0 0 0 0 0 0 0 0 0 0 0 0 0 0 0 0 0 -1 0 0 0 0 0 0 0 0 0 0 0 0 0 0 0 0 0 0 -1 0 0 0 0 0 0 0 0 0 0 0 0 0 0 0 -15 -10 0 0 0 0 0 0 0 0 0 0 0 0 0 0 0 0 0 0 0 0 0 0 0 0 0 0 -1 0 0 0 0 0 0 0 0 0 0 0 0 0 0 0 0 0 0 0 0 0 0 0 0 0 0 0 0 0 0 0 0 -1 0 0 0 0 0 0 0 0 0 0 0 0 0 0 0 0 0 0 0 0 0 0 0 0 0 0 0 0 0 0 0 0 0 0 0 0 0 0 0 0 0 0 0 0 0 0 -1 0 0 0 0 0 0 0 0 0 0 0 0 0 0 0 0 0 0 0 0 -1 0 0 0 0 0 0 0 0 0 0 0 0 0 0 0 0 0 0 0 0 0 0 0 0 0 0 0 0 0 0 0 0 0 0 0 0 0 0 0 0 0 0 0 0 0 0 0 0 0 0 0 0 0 0 0 0 0 0 0 -1 0 0 0 0 0 0 0 0 0 0 0 0 0 0 0 0 0 0 0 0 0 0 0 0 0 0 0 0 0 0 0 0 0 0 0 0 0 0 0 0 0 0 0 0 0 0 0 0 0 0 0 0 0 0 0 -1 0 0 0 0 0 0 0 0 0 0 0 -11 0 0 0 0 0 0 0 0 0 0 0 0 0 0 0 0 0 0 0 0 0 0 0 -1 0 0 0 0 0 0 0 0 0 0 0 0 0 0 0 0 0 0 0 0 0 0 0 0 0 0 0 0 0 0 0 0 0 0 0 -1 0 0 0 0 0 0 0 0 0 0 0 0 0 0 0 0 0 0 0 0 0 0 0 0 0 0 0 0 0 0 0 0 0 0 1 0 0 0 0 -1 0 0 0 0 0 0 0 0 0 0 0 0 0 0 0 0 0 0 0 0 0 0 0 0 0 0 0 0 0 0 0 0 0 0 0 0 0 0 0 0 0 0 0 0 0 0 1 -1 0 0 0 0 0 0 0 0 0 0 0 0 0 0 0 0 0 0 0 0 0 0 0 0 0 0 0 0 0 0 0 0 0 0 0 0 0 0 0 0 0 0 1 0 0 0 0 0 0 0 0 0 0 0 0 0 0 0 0 0 0 0 0 0 0 0 0 0 0 0 0 0 0 0 0 0 0 0 1 0 0 0 0 0 0 0 0 0 0 0 0 0 0 0 0 0 0 0 0 0 0 0 0 0 0 0 0 0 0 0 92 0 0 0 0 0 0 0 1 0 0 0 0 0 0 0 0 0 0 0 0 0 0 0 0 0 0 0 0 0 0 0 0 0 0 0 0 0 0 0 0 0 0 0 1 0 0 0 0 0 0 0 0 0 0 0 0 0 0 0 0 0 0 0 0 0 0 0 0 0 0 0 0 0 0 0 0 0 0 0 0 0 0 0 1 0 0 0 0 0 0 0 0 0 0 0 0 0 0 0 0 0 0 0 0 0 0 0 0 0 0 0 0 1 0 0 0 0 0 0 0 0 0 0 0 0 0 0 1 0 0 0 0 0 0 0 0 0 0 0 0 0 0 0 0 0 0 0 0 0 0 0 0 0 0 0 0 0 0 0 0 1 0 0 0 0 0 0 0 0 0 0 0 0 0 0 0 0 0 0 0 0 0 0 0 0 0 0 0 0 0 0 1 0 0 0 0 0 0 0 0 1 0 0 0 0 0 0 0 0 0 0 0 0 0 0 0 0 0 0 0 0 0 0 0 0 0 0 0 0 0 0 0 0 0 0 0 1 0 0 0 0 0 0 0 0 0 0 0 0 0 0 0 0 0 0 0 0 0 0 0 11 0 0 0 0 0 0 0 0 0 0 0 1 0 0 0 0 0 0 0 0 0 0 0 0 0 0 0 0 0 0 0 0 0 0 0 0 0 0 0 0 0 0 0 0 0 0 0 0 0 0 0 0 0 0 0 0 0 0 0 0 0 0 0 0 0 0 0 1 0 0 0 0 0 0 0 0 0 0 0 0 0 0 0 0 0 0 0 0 0 0 0 0 0 0 0 0 0 0 0 0 0 0 -1 0 0 0 0 0 0 0 0 0 0 0 0 0 0 0 0 0 0 0 0 0 0 0 0 1 0 0 0 0 0 0 0 0 0 0 0 0 0 0 0 0 0 0 0 0 0 0 0 0 0 0 0 0 0 0 0 0 0 0 0 0 0 0 0 0 0 0 0 0 0 0 0 0 0 0 0 0 0 0 0 0 0 0 0 0 0 0 0 0 0 0 0 1 0 0 0 0 0 0 -1 0 0 0 0 0 0 0 0 0 0 0 0 0 0 0 0 0 0 0 0 0 0 0 0 0 0 0 0 0 0 0 0 0 0 0 0 0 0 0 0 0 0 0 0 0 0 0 0 0 0 0 -16 10 0 0 0 0 0 0 0 0 0 0 0 0 0 0 0 0 0 0 0 0 0 0 0 0 0 0 0 0 0 0 0 0 0 0 0 1 0 0 0 0 0 0 -1 0 0 0 0 0 0 0 0 0 0 0 0 0 0 0 0 0 0 0 0 0 0 0 0 0 0 0 0 0 0 0 0 0 0 0 0 0 0 0 0 0 0 0 0 1 0 0 0 0 0 0 0 0 0 0 -1 0 0 0 0 0 0 0 0 0 0 0 0 0 0 0 0 0 0 0 0 0 0 0 0 0 0 0 0 0 0 0 0 0 0 0 0 1 0 0 0 0 0 0 0 0 0 0 0 0 0 0 0 0 0 0 0 0 0 0 0 0 0 0 0 0 0 0 0 0 0 0 0 0 0 0 0 1 0 0 0 0 0 0 -1 0 0 0 0 0 0 0 0 0 0 0 0 0 0 0 0 0 0 0 0 0 0 0 0 0 0 0 0 0 0 0 0 1 0 0 0 0 0 0 0 0 0 0 0 0 0 0 0 0 0 0 0 0 0 0 0 0 0 0 0 0 0 0 0 0 0 0 0 1 0 0 0 0 0 0 0 0 0 303 0 1 0 0c0,2 1,4 3,6l16 9c1,1 2,3 2,4l0 11c0,3 -2,5 -5,5l-24 0 -2 0 -39 0 -2 0 -25 0c-2,0 -4,-2 -4,-5l0 -11c0,-1 1,-3 2,-4l15 -9c2,-2 3,-4 3,-6l0 0 0 -1 0 -225 -80 219 0 6 0 1 0 0c0,2 1,4 3,6l15 9c1,1 2,3 2,4l0 11c0,3 -2,5 -4,5l-25 0 -2 0 -39 0 -2 0 -24 0c-3,0 -5,-2 -5,-5l0 -11c0,-1 1,-3 2,-4l15 -9c3,-2 4,-4 4,-6l0 0 0 -1 0 -303 0 0 0 0 0 0 0 0 0 0 0 -1 0 0 0 0 0 0 0 0 0 0 0 0 0 0 0 0 0 0 0 0 0 0 0 0 0 0 0 0 0 0 0 0 0 0 0 -1 0 0 0 0 0 0 0 0 0 0 0 0 0 0 0 0 0 0 0 0 0 0 -1 0 0 0 0 0 0 0 0 0 0 0 0 0 0 0 0 -1 0 0 0 0 0 0 0 0 0 0 0 0 0 0 0 0 0 0 0 0 0 0 0 0 0 0 0 0 0 0 0 0 0 0 0 0 0 0 0 -1 0 0 0 0 0 0 0 0 0 0 0 0 0 0 0 0 0 0 0 0 0 0 0 0 0 0 0 0 0 0 -1 0 0 0 0 0 0 0 0 0 0 0 0 0 0 0 0 -1 0 0 0 0 0 0 0 0 0 0 0 0 0 0 0 0 0 0 0 0 0 0 0 0 0 0 0 0 0 0 0 0 0 0 0 0 0 0 -1 0 0 0 0 0 0 0 0 0 0 0 0 -1 0 0 0 0 0 0 0 0 0 0 0 0 0 0 0 0 0 0 0 0 0 0 0 0 0 0 0 0 0 0 -1 0 0 0 -15 -10 0 0 0 0 0 0 0 0 0 0 0 0 0 0 0 0 0 0 0 0 0 0 0 0 0 0 0 0 0 0 0 0 0 0 0 0 0 0 0 0 0 0 0 0 0 0 -1 0 0 0 0 0 0 0 0 0 0 0 0 -1 0 0 0 0 0 0 0 0 0 0 0 0 0 0 0 0 0 0 0 0 0 0 0 0 0 0 0 0 0 0 0 0 0 0 0 0 0 0 0 0 0 0 0 0 0 0 0 0 0 0 0 0 0 0 0 0 0 0 0 0 0 0 0 0 0 0 0 -1 0 0 0 0 0 0 0 0 0 0 0 0 0 0 -1 0 0 0 0 0 0 0 0 0 0 0 0 0 0 0 0 0 0 0 0 0 0 0 0 0 0 0 0 0 0 0 0 0 0 0 0 0 0 0 0 0 0 0 0 -1 0 0 0 0 0 0 0 0 0 0 0 0 0 0 0 0 0 0 0 0 0 0 0 0 0 0 0 0 0 0 0 0 0 0 0 0 0 0 0 0 0 0 0 0 0 0 0 0 0 0 0 0 0 0 0 -1 0 0 0 0 0 0 0 0 0 0 0 -11 0 0 0 0 0 0 0 0 0 0 0 0 0 0 0 0 0 0 0 0 0 0 0 -1 0 0 0 0 0 0 0 0 0 0 0 0 0 0 0 0 0 0 0 0 0 0 0 0 0 0 0 0 0 0 0 0 0 0 0 -1 0 0 0 0 0 0 0 0 0 0 1 0 0 0 0 0 0 0 0 0 0 0 0 0 0 0 0 0 0 0 0 0 0 0 0 0 0 0 0 -1 0 0 0 0 0 0 0 0 0 0 0 0 0 0 0 0 0 0 0 0 0 0 0 0 0 0 0 0 0 0 0 0 0 0 1 0 0 0 0 0 0 0 0 0 0 0 0 -1 0 0 0 0 0 0 0 0 0 0 0 0 0 0 0 0 0 0 0 0 0 0 0 0 0 0 0 0 0 0 1 0 0 0 0 0 0 0 0 0 0 0 0 0 0 0 0 0 0 0 0 0 0 0 0 0 0 0 0 0 0 0 0 0 0 0 0 0 1 0 0 0 0 0 0 0 0 0 0 0 0 0 0 0 0 0 0 0 0 0 0 0 0 0 0 0 0 0 0 0 0 0 1 0 0 0 0 0 0 0z"/>
  <path class="fil0" d="M399 252l0 275c0,2 0,4 -2,6l-13 9c-1,1 -2,3 -2,4l0 11c0,3 2,5 4,5l76 0c2,0 4,-2 4,-5l0 -11c0,-1 -1,-3 -2,-4l-13 -9c-1,-2 -2,-4 -2,-6l0 -275 -50 0 0 0z"/>
  <path class="fil0" d="M449 248l48 300c1,8 8,14 16,14l39 0c2,0 4,-2 5,-4l56 -309c1,24 0,210 0,278 -1,2 -2,4 -4,6l-15 9c-1,1 -2,3 -2,4l0 11c0,3 2,5 4,5l92 0c3,0 5,-2 5,-5l0 -11c0,-1 -1,-3 -2,-4l-15 -9c-3,-2 -4,-4 -4,-6l0 -29 0 0 0 -275c0,-3 1,-5 3,-6l13 -10c1,-1 1,-2 1,-4l0 -11c0,-2 -1,-4 -3,-4l-76 0c-16,0 -25,12 -29,30l-45 263c-7,-18 -30,-264 -50,-281 -9,-12 -21,-12 -24,-12l0 0 0 0 0 0 -76 0c-2,0 -4,2 -4,4l0 11c0,2 1,3 2,4l13 10c2,1 2,3 2,6l0 275 50 0 0 -250 0 0z"/>
  <rect class="fil0" x="101" y="100" width="878.041" height="20.6854"/>
  <rect class="fil0" x="101" y="629" width="878.041" height="20.6854"/>
  <g>
   <path class="fil1" d="M348 1068l-230 0 0 -20 230 0 0 20 0 0zm0 0l0 0 0 0 0 0zm28 8l-20 0 0 0 0 0 0 -1 0 0 0 -1 0 0 0 0 0 -1 -1 0 0 0 0 -1 0 0 0 0 -1 -1 0 0 0 0 0 -1 -1 0 0 0 0 0 0 -1 -1 0 0 0 0 0 -1 0 0 -1 -1 0 0 0 0 0 -1 0 0 0 -1 0 0 0 0 -20 1 0 2 0 1 0 2 1 1 0 1 0 2 1 1 0 1 1 1 0 2 1 1 1 1 1 1 0 1 1 1 1 1 1 1 1 0 1 1 1 1 2 1 1 0 1 1 1 0 1 1 2 0 1 0 1 1 2 0 1 0 2 0 1 0 0zm-20 422l0 -422 20 0 0 422 0 0 -20 0zm-8 28l0 -20 0 0 0 0 1 0 0 0 1 0 0 0 0 0 1 0 0 -1 1 0 0 0 0 0 1 0 0 -1 0 0 0 0 1 0 0 -1 0 0 0 0 1 0 0 -1 0 0 0 -1 0 0 1 0 0 -1 0 0 0 0 0 -1 0 0 0 -1 0 0 20 0 0 1 0 2 0 1 -1 2 0 1 0 1 -1 2 0 1 -1 1 0 1 -1 2 -1 1 -1 1 0 1 -1 1 -1 1 -1 1 -1 1 -1 0 -1 1 -1 1 -2 1 -1 0 -1 1 -1 0 -2 1 -1 0 -1 0 -2 1 -1 0 -2 0 -1 0 0 0zm-230 -20l230 0 0 20 -230 0 0 0 0 -20zm-28 -8l20 0 0 0 0 0 0 1 0 0 0 1 0 0 0 0 0 1 1 0 0 0 0 1 0 0 0 1 1 0 0 0 0 0 0 1 1 0 0 0 0 0 1 1 0 0 0 0 1 0 0 0 0 1 1 0 0 0 0 0 1 0 0 0 1 0 0 0 0 20 -1 0 -2 0 -1 0 -2 -1 -1 0 -1 0 -2 -1 -1 0 -1 -1 -1 0 -1 -1 -2 -1 -1 -1 -1 0 -1 -1 -1 -1 -1 -1 -1 -1 0 -1 -1 -1 -1 -1 -1 -2 0 -1 -1 -1 0 -1 -1 -2 0 -1 0 -1 -1 -2 0 -1 0 -2 0 -1 0 0zm20 -422l0 422 -20 0 0 -422 0 0 20 0zm8 -28l0 20 0 0 0 0 -1 0 0 0 -1 0 0 0 0 0 -1 1 0 0 0 0 -1 0 0 0 0 0 -1 1 0 0 0 0 -1 0 0 1 0 0 0 0 -1 1 0 0 0 0 0 1 0 0 -1 0 0 1 0 0 0 0 0 1 0 0 0 1 0 0 -20 0 0 -1 0 -2 0 -1 1 -2 0 -1 0 -1 1 -2 0 -1 1 -1 0 -1 1 -2 1 -1 1 -1 0 -1 1 -1 1 -1 1 -1 1 -1 1 0 1 -1 2 -1 1 -1 1 0 1 -1 1 0 2 -1 1 0 1 0 2 -1 1 0 2 0 1 0 0 0z"/>
  </g>
  <g>
   <path class="fil1" d="M330 1403l-193 0 0 -20 193 0 10 10 -10 10zm10 -10l0 10 -10 0 10 -10zm0 -303l0 303 -20 0 0 -303 10 -10 10 10zm-10 -10l10 0 0 10 -10 -10zm-193 0l193 0 0 20 -193 0 -10 -10 10 -10zm-10 10l0 -10 10 0 -10 10zm0 303l0 -303 20 0 0 303 -10 10 -10 -10zm10 10l-10 0 0 -10 10 10z"/>
  </g>
  <g>
   <path class="fil1" d="M233 1443l0 -20 0 0 2 0 2 0 2 0 2 1 2 0 1 1 2 0 2 1 1 1 2 1 2 1 1 1 2 1 1 1 2 1 1 1 1 1 1 2 1 1 2 2 1 1 0 2 1 2 1 1 1 2 0 2 1 2 0 1 1 2 0 2 0 2 0 2 -20 0 0 -1 0 -1 0 -1 0 -1 -1 0 0 -1 0 -1 0 -1 -1 -1 0 -1 -1 0 0 -1 -1 -1 0 0 -1 -1 0 -1 -1 0 -1 -1 0 0 -1 -1 -1 0 0 -1 -1 0 -1 -1 -1 0 -1 0 -1 0 0 -1 -1 0 -1 0 -1 0 -1 0 0 0zm-18 18l-20 0 0 0 0 -2 0 -2 0 -2 1 -2 0 -1 1 -2 0 -2 1 -2 1 -1 1 -2 1 -2 1 -1 1 -2 1 -1 1 -2 1 -1 1 -1 2 -1 1 -1 2 -1 1 -1 2 -1 2 -1 1 -1 2 -1 2 0 2 -1 1 0 2 -1 2 0 2 0 2 0 0 20 -1 0 -1 0 -1 0 -1 0 0 1 -1 0 -1 0 -1 0 -1 1 -1 0 0 1 -1 0 -1 1 0 0 -1 1 -1 0 0 1 -1 1 0 0 -1 1 0 1 -1 0 0 1 -1 1 0 1 0 1 0 1 -1 0 0 1 0 1 0 1 0 1 0 0zm18 18l0 20 0 0 -2 0 -2 0 -2 0 -2 -1 -1 0 -2 -1 -2 0 -2 -1 -1 -1 -2 -1 -2 0 -1 -1 -2 -2 -1 -1 -2 -1 -1 -1 -1 -1 -1 -2 -1 -1 -1 -2 -1 -1 -1 -2 -1 -1 -1 -2 -1 -2 0 -2 -1 -1 0 -2 -1 -2 0 -2 0 -2 0 -2 20 0 0 1 0 1 0 1 0 1 1 0 0 1 0 1 0 1 1 1 0 1 1 0 0 1 1 1 0 0 1 1 0 1 1 0 1 1 0 0 1 1 1 0 0 1 1 0 1 1 1 0 1 0 1 0 0 1 1 0 1 0 1 0 1 0 0 0zm18 -18l20 0 0 0 0 2 0 2 0 2 -1 2 0 2 -1 1 0 2 -1 2 -1 2 -1 1 0 2 -1 1 -2 2 -1 1 -1 2 -1 1 -1 1 -2 1 -1 1 -2 2 -1 1 -2 0 -2 1 -1 1 -2 1 -2 0 -1 1 -2 0 -2 1 -2 0 -2 0 -2 0 0 -20 1 0 1 0 1 0 1 0 0 -1 1 0 1 0 1 0 1 -1 1 0 0 -1 1 0 1 -1 0 0 1 -1 1 0 0 -1 1 -1 0 0 1 -1 0 -1 1 0 0 -1 1 -1 0 -1 0 -1 0 -1 1 0 0 -1 0 -1 0 -1 0 -1 0 0z"/>
  </g>
  <g>
   <path class="fil1" d="M309 932l0 74 -20 0 0 -74 0 0 20 0zm6 -26l0 20 0 0 0 0 -1 0 0 0 0 0 -1 0 0 0 0 0 0 1 -1 0 0 0 0 0 0 0 -1 0 0 0 0 0 0 1 -1 0 0 0 0 0 0 1 0 0 0 0 0 0 -1 1 0 0 0 0 0 0 0 1 0 0 0 0 0 1 0 0 -20 0 0 -1 0 -2 0 -1 1 -1 0 -1 0 -2 1 -1 0 -1 1 -1 0 -1 1 -1 0 -2 1 -1 1 -1 1 -1 1 0 0 -1 1 -1 1 -1 1 -1 2 0 1 -1 1 0 1 -1 1 0 1 -1 2 0 1 0 1 -1 1 0 2 0 1 0 0 0zm317 20l-317 0 0 -20 317 0 0 0 0 20zm25 6l-20 0 0 0 0 0 0 -1 0 0 0 0 0 -1 0 0 0 0 0 -1 -1 0 0 0 0 0 0 -1 0 0 0 0 -1 0 0 0 0 -1 0 0 0 0 0 0 -1 0 0 0 0 -1 0 0 -1 0 0 0 0 0 0 0 0 0 -1 0 0 0 0 0 0 -20 1 0 2 0 1 0 1 1 1 0 2 0 1 1 1 0 1 1 1 0 1 1 1 1 1 0 1 1 1 1 1 1 1 1 0 1 1 1 1 1 0 1 1 1 1 1 0 1 1 1 0 1 0 2 1 1 0 1 0 1 0 2 0 1 0 0zm-20 193l0 -193 20 0 0 193 0 0 -20 0zm-5 25l0 -20 0 0 0 0 0 0 1 0 0 0 0 0 0 0 0 0 1 0 0 0 0 -1 0 0 1 0 0 0 0 0 0 0 0 -1 1 0 0 0 0 0 0 0 0 -1 0 0 1 0 0 0 0 -1 0 0 0 0 0 0 0 0 0 -1 0 0 0 0 20 0 0 1 0 2 0 1 -1 1 0 1 0 2 -1 1 0 1 -1 1 0 1 -1 1 0 1 -1 1 -1 1 -1 1 0 1 -1 0 -1 1 -1 1 -1 1 -1 0 -1 1 -1 0 -1 1 -1 0 -1 1 -2 0 -1 0 -1 1 -1 0 -2 0 -1 0 0 0zm-208 -20l208 0 0 20 -208 0 0 -20z"/>
  </g>
  <g>
   <path class="fil1" d="M467 1063l-174 -139 12 -16 174 139 0 16 -12 0zm12 0l-6 5 -6 -5 12 0zm174 -139l-174 139 -12 -16 174 -139 12 16z"/>
  </g>
  <g>
   <path class="fil1" d="M765 1367l-20 0 0 0 0 -7 -1 -7 -1 -7 -1 -7 -1 -7 -2 -7 -2 -6 -3 -7 -3 -6 -3 -6 -3 -6 -4 -5 -4 -6 -4 -5 -4 -5 -5 -5 -5 -5 -5 -4 -5 -4 -6 -4 -5 -4 -6 -3 -6 -3 -6 -3 -7 -3 -6 -2 -7 -2 -7 -1 -7 -1 -7 -1 -7 -1 -7 0 0 -20 8 0 8 1 8 1 8 1 8 2 8 2 7 3 7 3 7 3 7 3 7 4 7 4 6 5 6 5 6 5 5 5 5 5 6 6 4 6 5 6 4 7 4 7 3 7 3 7 3 7 3 7 2 8 2 8 1 8 1 8 1 8 0 8 0 0zm-160 159l0 -20 0 0 7 0 7 -1 7 -1 7 -1 7 -1 7 -2 6 -2 7 -3 6 -3 6 -3 6 -3 5 -4 6 -4 5 -4 5 -4 5 -5 5 -5 4 -5 4 -5 4 -5 4 -6 3 -6 3 -6 3 -6 3 -6 2 -7 2 -6 1 -7 1 -7 1 -7 1 -7 0 -7 20 0 0 8 -1 8 -1 8 -1 8 -2 8 -2 7 -3 8 -3 7 -3 7 -3 7 -4 6 -4 7 -5 6 -4 6 -6 6 -5 5 -5 6 -6 5 -6 4 -6 5 -7 4 -7 4 -7 3 -7 3 -7 3 -7 3 -8 2 -8 2 -8 1 -8 1 -8 1 -8 0 0 0zm-78 -24l-6 -20 8 2 2 1 3 1 2 1 2 2 2 1 2 1 3 1 2 1 2 1 2 1 3 1 2 1 2 1 2 1 3 0 2 1 3 1 2 0 2 1 3 1 2 0 3 1 2 0 3 0 2 1 3 0 2 0 3 1 2 0 3 0 2 0 3 0 0 20 -3 0 -3 0 -3 0 -3 0 -3 -1 -3 0 -3 0 -2 -1 -3 0 -3 -1 -3 0 -3 -1 -2 -1 -3 0 -3 -1 -3 -1 -2 -1 -3 -1 -3 0 -2 -1 -3 -1 -3 -2 -2 -1 -3 -1 -2 -1 -3 -1 -2 -2 -3 -1 -2 -1 -2 -2 -3 -1 -2 -2 8 2zm-6 -20l5 -1 3 3 -8 -2zm-79 22l79 -22 6 20 -79 22 -12 -15 6 -5zm6 20l-24 6 12 -21 12 15zm42 -69l-36 64 -18 -10 36 -64 17 -1 1 11zm-1 -11l4 6 -3 5 -1 -11zm-43 -77l20 0 0 0 0 3 0 2 0 3 0 3 1 2 0 3 0 3 1 2 0 3 0 2 1 3 0 2 1 3 1 2 0 3 1 2 1 3 1 2 0 2 1 3 1 2 1 2 1 3 1 2 1 2 2 2 1 3 1 2 1 2 2 2 1 2 1 2 -16 12 -2 -3 -1 -2 -2 -3 -1 -2 -2 -3 -1 -2 -1 -3 -2 -2 -1 -3 -1 -3 -1 -2 -1 -3 -1 -3 -1 -2 -1 -3 -1 -3 -1 -3 -1 -3 0 -2 -1 -3 -1 -3 0 -3 -1 -3 0 -3 -1 -3 0 -3 0 -3 -1 -3 0 -3 0 -3 0 -3 0 -3 0 0zm149 -150l20 0 -10 10 -7 0 -7 1 -7 1 -7 1 -7 1 -6 2 -7 2 -6 3 -6 3 -6 3 -6 3 -6 4 -5 4 -5 4 -5 4 -5 5 -5 5 -4 5 -4 5 -4 6 -4 5 -3 6 -3 6 -3 6 -3 7 -2 6 -2 7 -1 7 -1 7 -1 7 -1 7 0 7 -20 0 0 -8 1 -8 1 -8 1 -8 2 -8 2 -8 3 -7 3 -7 3 -7 3 -7 4 -7 4 -6 5 -7 4 -6 5 -6 6 -5 5 -5 6 -5 6 -5 6 -5 7 -4 6 -4 7 -3 7 -3 7 -3 8 -3 7 -2 8 -2 8 -1 8 -1 8 -1 8 0 -10 10zm20 0l0 10 -10 0 10 -10zm0 0l0 0 -20 0 0 0 10 -10 10 10zm-20 0l0 -10 10 0 -10 10z"/>
  </g>
  <path class="fil2" d="M590 1407c0,-2 0,-4 0,-5 0,-8 1,-14 3,-20 2,-4 4,-8 7,-12 3,-3 8,-7 14,-13 7,-6 11,-11 13,-14 2,-4 3,-7 3,-11 0,-8 -3,-14 -9,-20 -5,-6 -13,-8 -21,-8 -8,0 -15,2 -20,7 -6,5 -9,13 -11,24l-19 -2c1,-15 7,-26 15,-34 9,-7 20,-11 35,-11 15,0 27,4 36,12 9,9 13,19 13,30 0,7 -1,13 -4,19 -3,6 -10,13 -19,21 -6,5 -10,9 -12,12 -2,3 -3,6 -4,9 -1,3 -2,9 -2,16l-18 0 0 0zm-4 39l0 -22 22 0 0 22 -22 0z"/>
  <path class="fil3" d="M1560 916c193,0 350,157 350,350 0,193 -157,350 -350,350 -193,0 -350,-157 -350,-350 0,-193 157,-350 350,-350zm226 124c-58,-58 -138,-94 -226,-94 -89,0 -169,36 -226,94 -58,58 -94,138 -94,226 0,89 36,169 94,226 57,58 137,94 226,94 88,0 168,-36 226,-94 58,-57 94,-137 94,-226 0,-88 -36,-168 -94,-226z"/>
  <rect class="fil3" x="1545" y="1086" width="30.002" height="360"/>
  <rect class="fil3" transform="matrix(8.47507E-15 -0.32 0.320001 8.47504E-15 1379.81 1281.22)" width="93.756" height="1125"/>
  <path class="fil4" d="M287 1863l-125 0c-17,0 -32,6 -44,18 -12,12 -18,27 -18,44l0 124c0,18 6,32 18,45 12,12 27,18 44,18l73 0c9,0 16,3 22,9 6,6 9,13 9,22l0 10c0,23 -8,43 -24,59 -16,16 -36,24 -59,24l-21 0c-5,0 -10,2 -14,7 -4,4 -6,9 -6,14l0 42c0,5 2,10 6,14 4,4 9,6 14,6l21 0c23,0 44,-4 65,-13 20,-8 38,-20 53,-35 14,-15 26,-33 35,-53 9,-21 13,-42 13,-65l0 -228c0,-17 -6,-32 -18,-44 -12,-12 -27,-18 -44,-18z"/>
  <path class="fil4" d="M622 1881c-12,-12 -27,-18 -44,-18l-125 0c-17,0 -32,6 -44,18 -12,12 -18,27 -18,44l0 124c0,18 6,32 18,45 12,12 27,18 44,18l73 0c8,0 16,3 22,9 6,6 9,13 9,22l0 10c0,23 -8,43 -24,59 -17,16 -36,24 -59,24l-21 0c-6,0 -10,2 -15,7 -4,4 -6,9 -6,14l0 42c0,5 2,10 6,14 5,4 9,6 15,6l21 0c22,0 44,-4 64,-13 21,-8 38,-20 53,-35 15,-15 27,-33 36,-53 9,-21 13,-42 13,-65l0 -228c0,-17 -6,-32 -18,-44z"/>
  <path class="fil3" d="M287 1843l-125 0c-17,0 -32,6 -44,19 -12,12 -18,26 -18,44l0 124c0,18 6,32 18,44 12,13 27,19 44,19l73 0c9,0 16,3 22,9 6,6 9,13 9,22l0 10c0,23 -8,43 -24,59 -16,16 -36,24 -59,24l-21 0c-5,0 -10,2 -14,6 -4,5 -6,9 -6,15l0 42c0,5 2,10 6,14 4,4 9,6 14,6l21 0c23,0 44,-4 65,-13 20,-9 38,-20 53,-35 14,-15 26,-33 35,-53 9,-21 13,-42 13,-65l0 -228c0,-18 -6,-32 -18,-44 -12,-13 -27,-19 -44,-19z"/>
  <path class="fil3" d="M622 1862c-12,-13 -27,-19 -44,-19l-125 0c-17,0 -32,6 -44,19 -12,12 -18,26 -18,44l0 124c0,18 6,32 18,44 12,13 27,19 44,19l73 0c8,0 16,3 22,9 6,6 9,13 9,22l0 10c0,23 -8,43 -24,59 -17,16 -36,24 -59,24l-21 0c-6,0 -10,2 -15,6 -4,5 -6,9 -6,15l0 42c0,5 2,10 6,14 5,4 9,6 15,6l21 0c22,0 44,-4 64,-13 21,-9 38,-20 53,-35 15,-15 27,-33 36,-53 9,-21 13,-42 13,-65l0 -228c0,-18 -6,-32 -18,-44z"/>
  <g>
   <path class="fil5" d="M761 3033l-661 0 0 -36 661 0 18 18 -18 18zm18 -18l0 18 -18 0 18 -18zm0 -171l0 171 -36 0 0 -171 27 -16 9 16zm-36 0l0 -33 27 17 -27 16zm278 188l-270 -173 19 -31 270 173 -19 31zm269 173l-269 -173 19 -31 270 173 0 31 -20 0zm20 -31l23 15 -23 16 0 -31zm-289 173l269 -173 20 31 -270 173 -19 -31zm-270 173l270 -173 19 31 -270 172 -27 -15 8 -15zm19 30l-27 18 0 -33 27 15zm9 -203l0 188 -36 0 0 -188 18 -18 18 18zm-18 -18l18 0 0 18 -18 -18zm-661 0l661 0 0 36 -661 0 -18 -18 18 -18zm0 36l-18 0 0 -18 18 18zm18 -350l0 332 -36 0 0 -332 18 -18 18 18zm-36 0l0 -18 18 0 -18 18z"/>
  </g>
  <g>
   <path class="fil5" d="M2219 2996l0 -661 36 0 0 661 -18 18 -18 -18zm18 18l-18 0 0 -18 18 18zm171 0l-171 0 0 -36 171 0 15 28 -15 8zm0 -36l33 0 -18 28 -15 -28zm-188 278l173 -270 30 20 -173 269 -30 -19zm-173 269l173 -269 30 19 -173 270 -30 0 0 -20zm30 20l-15 24 -15 -24 30 0zm-173 -289l173 269 -30 20 -173 -270 30 -19zm-173 -270l173 270 -30 19 -173 -269 15 -28 15 8zm-30 20l-18 -28 33 0 -15 28zm203 8l-188 0 0 -36 188 0 18 18 -18 18zm18 -18l0 18 -18 0 18 -18zm0 -661l0 661 -36 0 0 -661 18 -18 18 18zm-36 0l0 -18 18 0 -18 18zm351 18l-333 0 0 -36 333 0 18 18 -18 18zm0 -36l18 0 0 18 -18 -18z"/>
  </g>
  <polygon class="fil5" points="3150,1262 2978,1167 2978,1220 3055,1262 2978,1304 2978,1357 "/>
  <polygon class="fil5" points="2338,1262 2511,1167 2511,1220 2433,1262 2511,1304 2511,1357 "/>
  <g>
   <path class="fil6" d="M606 4168c0,-21 -17,-38 -38,-38l-70 0c17,-19 28,-41 30,-60 2,-12 -2,-24 -10,-32 -7,-8 -16,-13 -27,-13 0,0 0,0 0,0 -10,0 -20,4 -27,11 -7,7 -11,17 -11,27 0,2 -4,10 -14,19 -8,7 -21,17 -41,24 -8,2 -15,7 -21,13 -3,4 -8,9 -14,14 -3,-2 -7,-3 -10,-3l-66 0c-12,0 -22,10 -22,21l0 177c0,12 10,21 22,21l66 0c8,0 15,-4 19,-11l168 0c18,0 33,-14 33,-32 0,-6 -2,-12 -5,-17 9,-5 16,-16 16,-27 0,-6 -2,-12 -5,-17 9,-6 16,-16 16,-27 0,-7 -2,-13 -6,-19 10,-7 17,-18 17,-31zm-38 17l-6 0c-5,0 -10,5 -10,10 0,6 5,11 10,11 7,0 12,5 12,12 0,6 -5,11 -12,11l-11 0c-5,0 -10,5 -10,11 0,5 5,10 10,10 7,0 12,5 12,12 0,6 -5,11 -12,11l-11 0c-5,0 -10,5 -10,11 0,5 5,10 10,10 7,0 12,5 12,12 0,6 -5,11 -12,11l-166 0 0 -99c0,-6 -4,-11 -10,-11 -6,0 -10,5 -10,11l0 110c0,0 -1,0 -1,0l-66 0c-1,0 -1,0 -1,0l0 -177c0,0 0,0 1,0l66 0c0,0 1,0 1,0l0 22c0,6 4,11 10,11 6,0 10,-5 10,-11l0 -22c0,0 0,-1 0,-1 8,-6 14,-12 18,-16 4,-5 8,-7 13,-9 24,-8 40,-20 50,-30 12,-11 19,-23 19,-32 0,-5 1,-9 5,-12 3,-3 7,-5 12,-5 6,0 10,3 12,5 4,5 5,11 5,17 -2,20 -19,46 -42,64 -3,3 -5,8 -3,12 1,4 5,7 9,7l96 0c9,0 17,7 17,17 0,9 -8,17 -17,17z"/>
   <path class="fil6" d="M320 4284c-6,0 -11,5 -11,11 0,5 5,10 11,10 5,0 10,-5 10,-10 0,-6 -5,-11 -10,-11z"/>
   <path class="fil6" d="M742 4207l17 -47c2,-4 1,-8 -1,-11l-32 -39 3 -50c0,-4 -2,-7 -5,-9l-42 -28 -13 -48c-1,-4 -4,-6 -7,-7l-49 -14 -27 -42c-2,-3 -6,-4 -10,-4l-50 2 -39 -31c-3,-3 -7,-3 -10,-2l-47 18 -47 -18c-3,-1 -7,-1 -10,2l-39 31 -50 -2c-4,0 -8,1 -10,4l-27 42 -49 14c-3,1 -6,3 -7,7l-13 48 -42 28c-3,2 -5,5 -5,9l3 50 -32 39c-2,3 -3,7 -1,11l17 47 -17 46c-2,4 -1,8 1,11l32 39 -3 50c0,4 2,7 5,9l42 28 13 48c1,4 4,6 7,7l49 14 27 42c2,3 6,4 10,4l50 -2 39 31c3,3 7,3 10,2l47 -18 47 18c1,0 2,1 4,1 2,0 4,-1 6,-3l39 -31 50 2c4,0 8,-1 10,-4l27 -42 49 -14c3,-1 6,-3 7,-7l13 -48 42 -28c3,-2 5,-5 5,-9l-3 -50 32 -39c2,-3 3,-7 1,-11l-17 -46zm-21 3l17 45 -30 38c-2,2 -3,4 -2,7l2 48 -41 27c-2,1 -3,3 -4,5l-13 47 -46 13c-2,0 -5,2 -6,4l-26 40 -49 -2c-2,0 -5,1 -7,2l-37 30 -45 -17c-2,0 -3,0 -4,0 -1,0 -2,0 -4,0l-45 17 -37 -30c-2,-1 -5,-2 -7,-2l-49 2 -26 -40c-1,-2 -3,-4 -6,-4l-46 -13 -13 -47c-1,-2 -2,-4 -4,-5l-41 -27 3 -48c0,-3 -1,-5 -3,-7l-30 -38 17 -45c1,-2 1,-5 0,-7l-17 -45 30 -38c2,-2 3,-4 3,-7l-3 -48 41 -27c2,-1 3,-3 4,-5l13 -47 46 -13c3,0 5,-2 6,-4l26 -40 49 2c2,0 5,-1 7,-2l37 -30 45 17c3,1 5,1 8,0l45 -17 37 30c2,1 5,2 7,2l49 -2 26 40c1,2 4,4 6,4l46 13 13 47c1,2 2,4 4,5l41 27 -2 48c-1,3 0,5 2,7l30 38 -17 45c-1,2 -1,5 0,7z"/>
   <path class="fil6" d="M624 4028c-2,-3 -5,-6 -8,-8 -2,-3 -5,-6 -8,-8 -4,-4 -11,-4 -15,0 -3,5 -3,11 1,15 3,2 5,5 8,7 2,3 5,5 7,8 2,2 5,3 8,3 2,0 5,-1 7,-2 4,-4 4,-11 0,-15z"/>
   <path class="fil6" d="M571 3984c-50,-32 -110,-46 -169,-40 -60,6 -116,33 -159,76 -47,47 -74,109 -77,176 -3,66 19,130 62,180 2,2 5,4 7,4 3,0 5,-1 7,-3 4,-3 5,-10 1,-14 -39,-47 -59,-106 -56,-167 2,-61 27,-118 71,-162 39,-39 91,-64 146,-70 55,-5 110,8 156,37 5,3 11,2 14,-3 4,-5 2,-11 -3,-14z"/>
   <path class="fil6" d="M652 4065c-3,-5 -9,-6 -14,-3 -5,3 -6,9 -3,14 29,46 42,101 37,156 -6,55 -31,107 -70,146 -44,44 -101,69 -162,71 -61,3 -120,-17 -167,-56 -4,-4 -11,-3 -14,1 -4,4 -3,11 1,14 48,41 107,62 170,62 3,0 7,0 10,0 67,-3 129,-30 176,-77 43,-43 70,-99 76,-159 6,-59 -8,-119 -40,-169z"/>
  </g>
 </g>
</svg>
